<svg width="152" height="23" viewBox="0 0 152 23" fill="none" xmlns="http://www.w3.org/2000/svg">
<path d="M12.1516 16.3297C12.1516 15.4885 11.8547 14.8453 11.2609 14.4C10.6672 13.9448 9.59843 13.4698 8.05468 12.975C6.51093 12.4703 5.2888 11.9755 4.38828 11.4906C1.93411 10.1646 0.707027 8.37838 0.707027 6.13203C0.707027 4.96432 1.03359 3.92526 1.68671 3.01484C2.34974 2.09453 3.29479 1.37708 4.52187 0.862499C5.75885 0.347916 7.14427 0.0906239 8.67812 0.0906239C10.2219 0.0906239 11.5974 0.372655 12.8047 0.936718C14.012 1.49088 14.9471 2.2776 15.6102 3.29687C16.2831 4.31614 16.6195 5.47396 16.6195 6.77031H12.1664C12.1664 5.78073 11.8547 5.0138 11.2312 4.46953C10.6078 3.91536 9.73203 3.63828 8.6039 3.63828C7.51536 3.63828 6.66927 3.87083 6.06562 4.33594C5.46197 4.79114 5.16015 5.39479 5.16015 6.14687C5.16015 6.84948 5.51145 7.43828 6.21406 7.91328C6.92656 8.38828 7.97057 8.83359 9.34609 9.24922C11.8794 10.0112 13.725 10.9562 14.8828 12.0844C16.0406 13.2125 16.6195 14.6177 16.6195 16.3C16.6195 18.1703 15.912 19.6398 14.4969 20.7086C13.0818 21.7674 11.1768 22.2969 8.78203 22.2969C7.11953 22.2969 5.60546 21.9951 4.23984 21.3914C2.87421 20.7779 1.8302 19.9417 1.10781 18.8828C0.395308 17.824 0.039058 16.5969 0.039058 15.2016H4.50703C4.50703 17.5865 5.93203 18.7789 8.78203 18.7789C9.84088 18.7789 10.6672 18.5661 11.2609 18.1406C11.8547 17.7052 12.1516 17.1016 12.1516 16.3297ZM35.9164 3.99453H29.2961V22H24.843V3.99453H18.3117V0.387499H35.9164V3.99453ZM54.8273 0.387499V14.6227C54.8273 16.9878 54.0852 18.8581 52.6008 20.2336C51.1263 21.6091 49.1075 22.2969 46.5445 22.2969C44.0211 22.2969 42.0172 21.6289 40.5328 20.293C39.0484 18.957 38.2914 17.1214 38.2617 14.7859V0.387499H42.7148V14.6523C42.7148 16.0674 43.0513 17.1016 43.7242 17.7547C44.407 18.3979 45.3471 18.7195 46.5445 18.7195C49.0482 18.7195 50.3198 17.4034 50.3594 14.7711V0.387499H54.8273ZM58.4789 22V0.387499H65.1289C67.0289 0.387499 68.726 0.817968 70.2203 1.67891C71.7245 2.52995 72.8971 3.74713 73.7383 5.33047C74.5794 6.90391 75 8.69505 75 10.7039V11.6984C75 13.7073 74.5844 15.4935 73.7531 17.057C72.9318 18.6206 71.769 19.8328 70.2648 20.6937C68.7607 21.5547 67.0635 21.9901 65.1734 22H58.4789ZM62.932 3.99453V18.4227H65.0844C66.826 18.4227 68.157 17.8536 69.0773 16.7156C69.9977 15.5776 70.4677 13.9497 70.4875 11.832V10.6891C70.4875 8.49219 70.0323 6.82969 69.1219 5.70156C68.2115 4.56354 66.8805 3.99453 65.1289 3.99453H62.932ZM82.9859 22H78.5328V0.387499H82.9859V22ZM104.88 11.6836C104.88 13.8112 104.504 15.6766 103.752 17.2797C103 18.8828 101.922 20.1198 100.516 20.9906C99.1211 21.8615 97.518 22.2969 95.707 22.2969C93.9159 22.2969 92.3177 21.8664 90.9125 21.0055C89.5073 20.1445 88.4187 18.9174 87.6469 17.3242C86.875 15.7211 86.4841 13.8805 86.4742 11.8023V10.7336C86.4742 8.60599 86.8552 6.73568 87.6172 5.12266C88.3891 3.49974 89.4727 2.25781 90.868 1.39687C92.2732 0.526041 93.8763 0.0906239 95.6773 0.0906239C97.4784 0.0906239 99.0766 0.526041 100.472 1.39687C101.877 2.25781 102.961 3.49974 103.723 5.12266C104.495 6.73568 104.88 8.60104 104.88 10.7187V11.6836ZM100.368 10.7039C100.368 8.43776 99.9622 6.71588 99.1508 5.53828C98.3393 4.36068 97.1815 3.77187 95.6773 3.77187C94.1831 3.77187 93.0302 4.35573 92.2187 5.52344C91.4073 6.68125 90.9966 8.38333 90.9867 10.6297V11.6836C90.9867 13.8904 91.3924 15.6023 92.2039 16.8195C93.0154 18.0367 94.1831 18.6453 95.707 18.6453C97.2013 18.6453 98.3492 18.0615 99.1508 16.8937C99.9523 15.7161 100.358 14.0042 100.368 11.7578V10.7039ZM131.065 3.99453H124.445V22H119.991V3.99453H113.46V0.387499H131.065V3.99453ZM140.387 13.3312L138.071 15.825V22H133.618V0.387499H138.071V10.1844L140.03 7.49766L145.538 0.387499H151.015L143.341 9.99141L151.238 22H145.938L140.387 13.3312Z" fill="#615F5F"/>
</svg>
